<svg xmlns="http://www.w3.org/2000/svg" width="512" height="512" viewBox="0 0 512 512">
    <rect width="512" height="512" fill="#666"/>
    <circle cx="256" cy="256" r="150" fill="#444"/>
    <g transform="translate(128 128) scale(0.5 0.5)">
      <path d="M 310 350
      a 50.4 36 -25 1 1 -12 -19.2
      v -240
      a 6 4.8 0 1 1 12 0
      s 0 24 9.6 40.8
      s 18 18 46.8 52.8
      s 18 96 -4.8 141.6
      a 3 1.8 0 1 1 -6 0
      s 60 -144 -45.6 -150 z" fill="#ddd" />
      <path d="M 180 340 a 50 50 0 0 1 50 -50
      m 0 -40
      a 90 90 0 0 0 -90 90
      m -40 0
      a 130 130 0 0 1 130 -130" stroke="#ddd" fill="none" stroke-width="15" stroke-linecap="round"/>
    </g>
  </svg>